<svg width="172" height="22" viewBox="0 0 172 22" fill="none" xmlns="http://www.w3.org/2000/svg">
<path d="M7.104 19.1519C6.448 19.1519 5.632 18.7599 4.656 17.9759C3.968 17.8639 3.376 17.7119 2.88 17.5199C2.4 17.3439 2 17.1279 1.68 16.8719C1.232 16.4879 0.839997 15.9759 0.503997 15.3359C0.167997 14.6959 -2.89083e-06 14.0799 -2.89083e-06 13.4879C-2.89083e-06 13.0399 0.103997 12.6399 0.311997 12.2879C0.791997 11.4399 1.4 11.0159 2.136 11.0159C2.696 11.0159 3.024 11.4879 3.12 12.4319C3.232 13.3119 3.32 14.0159 3.384 14.5439C3.464 15.0559 3.528 15.3919 3.576 15.5519C3.816 16.3359 4.224 16.9999 4.8 17.5439C5.472 17.6879 6.2 17.7599 6.984 17.7599C8.712 17.7599 10.368 17.4319 11.952 16.7759C12.624 16.4879 13.28 16.1119 13.92 15.6479C14.56 15.1839 15.088 14.6719 15.504 14.1119C15.92 13.5519 16.128 13.0079 16.128 12.4799C16.128 11.7279 15.464 11.1439 14.136 10.7279L9.912 9.76795C9.048 9.57595 8.352 9.23995 7.824 8.75995C7.312 8.26395 7.056 7.70395 7.056 7.07995C7.056 6.11995 7.656 5.15995 8.856 4.19995C9.464 3.70395 10.176 3.28795 10.992 2.95195C11.808 2.59995 12.664 2.33595 13.56 2.15995C14.472 1.96795 15.344 1.87195 16.176 1.87195C17.36 1.87195 18.368 2.05595 19.2 2.42395C20.048 2.79195 20.576 3.32795 20.784 4.03195C20.832 4.19195 20.856 4.36795 20.856 4.55995C20.856 5.53595 20.368 6.21595 19.392 6.59995C18.8 6.83995 18.296 6.95995 17.88 6.95995C17.624 6.95995 17.424 6.91195 17.28 6.81595C17.248 6.78395 17.232 6.74395 17.232 6.69595C17.232 6.58395 17.456 6.51995 17.904 6.50395C18.176 6.48795 18.4 6.46395 18.576 6.43195C18.752 6.39995 18.88 6.36795 18.96 6.33595C19.568 6.01595 19.872 5.54395 19.872 4.91995C19.872 4.59995 19.784 4.26395 19.608 3.91195C19.112 2.99995 17.872 2.54395 15.888 2.54395C15.168 2.54395 14.424 2.62395 13.656 2.78395C12.888 2.92795 12.16 3.15195 11.472 3.45595C10.784 3.74395 10.2 4.11195 9.72 4.55995C8.888 5.32795 8.472 6.01595 8.472 6.62395C8.472 7.08795 8.696 7.50395 9.144 7.87195C9.608 8.22395 10.304 8.48795 11.232 8.66395L14.064 9.19195C15.152 9.39995 16.032 9.71195 16.704 10.1279C17.376 10.5279 17.712 11.1439 17.712 11.9759C17.712 12.7119 17.528 13.3999 17.16 14.0399C16.792 14.6799 16.296 15.2559 15.672 15.7679C15.064 16.2639 14.368 16.6799 13.584 17.0159C11.808 17.7999 9.712 18.1919 7.296 18.1919C6.992 18.1919 6.688 18.1839 6.384 18.1679C6.08 18.1519 5.784 18.1279 5.496 18.0959C5.72 18.2239 6 18.3519 6.336 18.4799C6.688 18.6079 7.088 18.7279 7.536 18.8399C7.584 18.8559 7.608 18.8879 7.608 18.9359C7.608 19.0799 7.44 19.1519 7.104 19.1519ZM3.936 17.3039C3.504 16.8239 3.168 16.3279 2.928 15.8159C2.576 15.0159 2.312 14.0319 2.136 12.8639C2.008 12.0159 1.872 11.5919 1.728 11.5919C1.6 11.5919 1.424 11.6879 1.2 11.8799C0.991997 12.0719 0.887997 12.4799 0.887997 13.1039C0.887997 14.3199 1.32 15.3759 2.184 16.2719C2.616 16.7199 3.2 17.0639 3.936 17.3039ZM19.3931 16.9199C18.9931 16.9199 18.6811 16.7359 18.4571 16.3679C18.2331 15.9839 18.1211 15.6159 18.1211 15.2639C18.1211 14.3039 18.8171 12.9599 20.2091 11.2319C21.6171 9.48795 22.7531 8.61595 23.6171 8.61595C24.4331 8.61595 24.8411 9.04795 24.8411 9.91195C24.8411 10.0399 24.8251 10.1759 24.7931 10.3199C24.7771 10.4639 24.7531 10.6159 24.7211 10.7759C24.7531 10.8239 24.8331 10.8479 24.9611 10.8479C25.3931 10.8479 25.9051 10.6959 26.4971 10.3919C26.4811 10.6639 25.8491 11.0559 24.6011 11.5679C24.7771 12.0959 24.2491 13.1039 23.0171 14.5919C21.7531 16.1439 20.6731 16.9199 19.7771 16.9199H19.3931ZM19.8251 16.1999C20.5131 16.1999 21.3931 15.5679 22.4651 14.3039C23.5051 13.0719 24.0251 12.1839 24.0251 11.6399C23.7691 11.4959 23.4491 11.1279 23.0651 10.5359C22.5211 10.5359 21.7371 11.1919 20.7131 12.5039C19.7051 13.7839 19.2171 14.7679 19.2491 15.4559C19.2651 15.9519 19.4571 16.1999 19.8251 16.1999ZM21.0311 21.7919C20.5511 21.7919 20.1431 21.5919 19.8071 21.1919C19.4711 20.7919 19.2951 20.3599 19.2791 19.8959C19.3271 19.7039 19.3991 19.6079 19.4951 19.6079C19.5911 19.6079 19.6471 19.7279 19.6631 19.9679C19.6791 20.2239 19.8071 20.4719 20.0471 20.7119C20.2871 20.9519 20.5271 21.0719 20.7671 21.0719C22.1271 21.0719 23.3671 20.2319 24.4871 18.5519C24.7911 18.1039 25.1591 17.4479 25.5911 16.5839C26.0391 15.7199 26.5431 14.6479 27.1031 13.3679L28.3991 10.2479C26.7991 10.2319 25.9991 10.0399 25.9991 9.67195C25.9991 9.51195 26.0871 9.36795 26.2631 9.23995C26.3911 9.14395 26.5111 9.09595 26.6231 9.09595C26.6391 9.09595 26.8311 9.10395 27.1991 9.11995C27.5831 9.11995 28.1431 9.12795 28.8791 9.14395C30.4471 5.65595 31.8871 3.91195 33.1991 3.91195C33.7111 3.91195 34.2151 4.15195 34.7111 4.63195C34.8391 4.75995 34.9031 4.92795 34.9031 5.13595C34.9031 5.63195 34.7591 5.87995 34.4711 5.87995C34.3911 5.87995 34.3111 5.81595 34.2311 5.68795C34.1671 5.57595 34.0631 5.48795 33.9191 5.42395C33.7751 5.34395 33.6391 5.30395 33.5111 5.30395C33.3351 5.30395 33.1831 5.31995 33.0551 5.35195C32.9271 5.36795 32.7511 5.46395 32.5271 5.63995C32.3031 5.79995 32.0951 6.00795 31.9031 6.26395C31.7111 6.50395 31.5591 6.71195 31.4471 6.88795C31.3351 7.06395 31.1831 7.34395 30.9911 7.72795C30.7991 8.09595 30.5511 8.56795 30.2471 9.14395H30.5351C32.2791 9.14395 33.4391 9.11995 34.0151 9.07195C34.0791 9.08795 34.1111 9.11995 34.1111 9.16795C34.1111 9.29595 33.5431 9.47195 32.4071 9.69595C31.9591 9.75995 31.5191 9.83195 31.0871 9.91195C30.6551 9.99195 30.2151 10.0719 29.7671 10.1519C29.5591 10.5999 29.3031 11.1359 28.9991 11.7599C28.6951 12.3679 28.3511 13.0479 27.9671 13.7999C27.2151 15.2079 26.5991 16.3279 26.1191 17.1599C25.6391 17.9919 25.3031 18.5439 25.1111 18.8159C23.7191 20.7999 22.3591 21.7919 21.0311 21.7919ZM36.2231 8.61595C35.9511 8.61595 35.7111 8.52795 35.5031 8.35195C35.3111 8.17595 35.2151 7.97595 35.2151 7.75195C35.2151 7.30395 35.5191 7.07995 36.1271 7.07995C36.3511 7.07995 36.5751 7.15995 36.7991 7.31995C37.0231 7.46395 37.1351 7.64795 37.1351 7.87195C37.1351 8.06395 37.0311 8.23995 36.8231 8.39995C36.6151 8.54395 36.4151 8.61595 36.2231 8.61595ZM31.7831 17.1359C31.4311 17.1359 31.1351 17.0239 30.8951 16.7999C30.6711 16.5599 30.5591 16.1439 30.5591 15.5519C30.5591 15.4719 30.5591 15.3999 30.5591 15.3359C30.5751 15.2559 30.5911 15.1839 30.6071 15.1199C30.7511 14.2559 31.2311 13.1679 32.0471 11.8559C32.9431 10.3999 33.6791 9.66395 34.2551 9.64795C34.3991 9.64795 34.5751 9.71195 34.7831 9.83995C34.9911 9.95195 35.0951 10.0799 35.0951 10.2239C35.0951 10.2239 34.4871 11.0079 33.2711 12.5759C32.0711 14.1279 31.4711 15.2319 31.4711 15.8879C31.4711 16.3999 31.6711 16.6559 32.0711 16.6559C32.3431 16.6559 32.6631 16.5519 33.0311 16.3439C33.4151 16.1359 33.7751 15.9119 34.1111 15.6719C34.4471 15.4319 34.6711 15.2639 34.7831 15.1679C35.2151 14.7999 35.5671 14.4879 35.8391 14.2319C36.1271 13.9599 36.3911 13.6719 36.6311 13.3679C36.7911 13.1599 36.9271 13.0159 37.0391 12.9359C37.1671 12.8559 37.2471 12.8159 37.2791 12.8159C37.3431 12.8159 37.3751 12.8639 37.3751 12.9599C37.3751 13.0399 37.2791 13.1999 37.0871 13.4399C36.9111 13.6799 36.6631 13.9599 36.3431 14.2799C35.9591 14.6639 35.5351 15.0799 35.0711 15.5279C34.6071 15.9759 34.1031 16.3599 33.5591 16.6799C33.0151 16.9839 32.4231 17.1359 31.7831 17.1359ZM37.9457 16.9919C37.5617 16.9919 37.1777 16.8559 36.7937 16.5839C36.4097 16.3119 36.1937 15.9919 36.1457 15.6239C35.9857 14.3919 36.7617 12.9279 38.4737 11.2319C40.1697 9.53595 41.6977 8.68795 43.0577 8.68795C43.4257 8.68795 43.7137 8.77595 43.9217 8.95195C44.0337 9.06395 44.1137 9.21595 44.1617 9.40795C44.2257 9.59995 44.2737 9.69595 44.3057 9.69595C44.3697 9.69595 44.4257 9.68795 44.4737 9.67195C44.5217 9.63995 44.5777 9.62395 44.6417 9.62395C44.8337 9.62395 45.0017 9.69595 45.1457 9.83995C45.2897 9.98395 45.3697 10.1119 45.3857 10.2239C45.4017 10.2559 44.8897 11.0479 43.8497 12.5999C42.8097 14.1199 42.3377 15.1519 42.4337 15.6959C42.5137 16.0639 42.6897 16.2479 42.9617 16.2479C43.7937 16.2479 45.3137 14.8719 47.5217 12.1199C47.5697 12.0559 47.6177 12.0239 47.6657 12.0239C47.7457 12.0239 47.7857 12.0799 47.7857 12.1919C47.7857 12.3199 47.7137 12.4799 47.5697 12.6719C45.5377 15.4079 43.9777 16.7759 42.8897 16.7759C42.7457 16.7759 42.6097 16.7519 42.4817 16.7039C41.7777 16.4319 41.4257 15.9039 41.4257 15.1199C41.4257 14.8479 41.4577 14.5759 41.5217 14.3039L40.0337 15.7439C39.5857 16.1919 39.1777 16.5119 38.8097 16.7039C38.4577 16.8959 38.1697 16.9919 37.9457 16.9919ZM37.7297 16.4639C38.6577 16.4639 39.9217 15.4479 41.5217 13.4159L44.0657 9.91195C43.9377 9.68795 43.7297 9.57595 43.4417 9.57595C42.4657 9.57595 41.1457 10.3599 39.4817 11.9279C37.7537 13.5279 36.9777 14.8479 37.1537 15.8879C37.2337 16.2719 37.4257 16.4639 37.7297 16.4639ZM55.2341 18.5279C52.7381 18.5279 51.4901 17.0559 51.4901 14.1119C51.4901 11.6799 52.1381 9.71995 53.4341 8.23195C54.5221 6.95195 55.7701 6.31195 57.1781 6.31195C57.9621 6.31195 58.5781 6.51995 59.0261 6.93595C59.4901 7.35195 59.7221 7.95195 59.7221 8.73595C59.7221 9.98395 59.2421 11.2479 58.2821 12.5279C57.2901 13.8559 56.2821 14.5199 55.2581 14.5199C54.6661 14.5199 54.2261 14.3439 53.9381 13.9919C53.6661 13.6399 53.5301 13.2159 53.5301 12.7199C53.5301 12.3999 53.5941 12.0479 53.7221 11.6639C53.8981 11.1999 54.0821 10.9679 54.2741 10.9679C54.4181 10.9679 54.4901 11.0399 54.4901 11.1839C54.4901 11.2639 54.4181 11.4719 54.2741 11.8079C54.1621 12.0479 54.1061 12.2959 54.1061 12.5519C54.1061 12.8879 54.2101 13.1599 54.4181 13.3679C54.6421 13.5599 54.9301 13.6559 55.2821 13.6559C56.2261 13.6559 57.1141 13.0559 57.9461 11.8559C58.7301 10.7359 59.1221 9.62395 59.1221 8.51995C59.1221 7.94395 58.9781 7.50395 58.6901 7.19995C58.4181 6.87995 58.0421 6.71995 57.5621 6.71995C56.4261 6.71995 55.2901 7.50395 54.1541 9.07195C52.9861 10.7519 52.4341 12.5999 52.4981 14.6159C52.5301 15.5119 52.7701 16.2719 53.2181 16.8959C53.6821 17.5199 54.2981 17.8319 55.0661 17.8319C57.2261 17.8319 59.9861 14.9599 63.3461 9.21595C61.5861 8.68795 60.7061 7.64795 60.7061 6.09595C60.7061 5.05595 60.9861 4.11995 61.5461 3.28795C62.1061 2.43995 62.8741 1.72795 63.8501 1.15195C65.1781 0.383948 66.4741 -5.19753e-05 67.7381 -5.19753e-05C68.4261 -5.19753e-05 69.0901 0.0879478 69.7301 0.263947C70.3861 0.423947 70.9301 0.687947 71.3621 1.05595C71.7941 1.40795 72.0101 1.87195 72.0101 2.44795C72.0101 2.63995 71.9621 2.82395 71.8661 2.99995C71.7861 3.17595 71.6981 3.26395 71.6021 3.26395C71.6181 3.26395 71.5461 3.21595 71.3861 3.11995C71.2261 3.00795 71.0501 2.95195 70.8581 2.95195C69.4981 2.95195 67.6341 4.97595 65.2661 9.02395C65.3301 9.03995 65.3941 9.04795 65.4581 9.04795C65.5221 9.04795 65.5861 9.04795 65.6501 9.04795C66.0501 9.04795 66.4341 8.97595 66.8021 8.83195C67.1861 8.68795 67.4981 8.48795 67.7381 8.23195C67.9941 7.97595 68.1221 7.68795 68.1221 7.36795C68.1221 7.23995 68.0901 7.11195 68.0261 6.98395C67.9781 6.83995 67.9541 6.75195 67.9541 6.71995C67.9541 6.59195 68.0181 6.52795 68.1461 6.52795C68.2101 6.52795 68.2741 6.55195 68.3381 6.59995C68.7061 6.87195 68.8901 7.20795 68.8901 7.60795C68.8901 8.00795 68.7381 8.35995 68.4341 8.66395C68.1301 8.96795 67.7381 9.20795 67.2581 9.38395C66.7941 9.54395 66.3221 9.62395 65.8421 9.62395C65.5701 9.62395 65.2981 9.59995 65.0261 9.55195C63.9221 11.5839 62.5781 13.4559 60.9941 15.1679C58.8821 17.4079 56.9621 18.5279 55.2341 18.5279ZM63.7541 8.61595C64.6341 7.17595 65.7061 5.80795 66.9701 4.51195C68.4901 2.94395 69.7141 2.15995 70.6421 2.15995C70.8821 2.15995 71.0901 2.21595 71.2661 2.32795C71.2501 2.02395 71.1061 1.75195 70.8341 1.51195C70.5621 1.25595 70.2341 1.05595 69.8501 0.911948C69.4821 0.767948 69.1301 0.687948 68.7941 0.671948C67.7381 0.623948 66.6181 0.863947 65.4341 1.39195C64.4261 1.83995 63.5941 2.51995 62.9381 3.43195C62.2981 4.32795 61.9781 5.36795 61.9781 6.55195C61.9781 7.70395 62.5701 8.39195 63.7541 8.61595ZM67.5742 16.9199C66.8222 16.9199 66.2622 16.6719 65.8942 16.1759C65.5422 15.6799 65.2542 14.9919 65.0302 14.1119C64.7422 14.3999 64.5422 14.5439 64.4302 14.5439C64.3502 14.5439 64.3102 14.4799 64.3102 14.3519C64.3102 14.2559 64.3502 14.1679 64.4302 14.0879C64.4302 14.0879 64.6302 13.8399 65.0302 13.3439C65.4462 12.8479 66.1422 12.1519 67.1182 11.2559L70.1422 8.42395C70.5582 8.02395 70.8862 7.71995 71.1262 7.51195C71.3822 7.30395 71.5662 7.19995 71.6782 7.19995C72.1902 7.19995 72.4462 7.39195 72.4462 7.77595C72.4462 7.96795 72.3422 8.19195 72.1342 8.44795C71.9742 8.63995 71.8542 8.79195 71.7742 8.90395C71.7102 8.99995 71.6702 9.05595 71.6542 9.07195C71.3662 9.56795 71.1022 10.4559 70.8622 11.7359C70.6862 12.6799 70.5342 13.4559 70.4062 14.0639C70.2782 14.6719 70.1742 15.1119 70.0942 15.3839C70.7662 15.3679 71.4302 15.1599 72.0862 14.7599C72.7422 14.3599 73.4462 13.7039 74.1982 12.7919C74.2302 12.7599 74.2782 12.7119 74.3422 12.6479C74.4062 12.5839 74.4702 12.5519 74.5342 12.5519C74.6302 12.5519 74.6782 12.5919 74.6782 12.6719C74.6782 12.7519 74.6542 12.8319 74.6062 12.9119C74.5582 12.9919 74.5102 13.0639 74.4622 13.1279C73.9662 13.7199 73.5022 14.2079 73.0702 14.5919C72.6382 14.9599 72.1822 15.2559 71.7022 15.4799C71.2222 15.6879 70.6542 15.8639 69.9982 16.0079L69.2302 16.5119C69.0222 16.6559 68.7742 16.7599 68.4862 16.8239C68.1982 16.8879 67.8942 16.9199 67.5742 16.9199ZM67.8622 15.6959C68.2302 15.6959 68.5342 15.6079 68.7742 15.4319C68.9502 15.3359 69.1182 15.0719 69.2782 14.6399C69.4542 14.1919 69.6222 13.6399 69.7822 12.9839C69.9102 12.4239 70.0062 11.8799 70.0702 11.3519C70.1502 10.8079 70.2222 10.2879 70.2862 9.79195L70.3822 8.97595C70.0142 9.24795 69.5502 9.63995 68.9902 10.1519C68.4302 10.6639 67.8782 11.1999 67.3342 11.7599C66.7902 12.3199 66.4382 12.7359 66.2782 13.0079C66.1182 13.2639 66.0302 13.4559 66.0142 13.5839C65.9502 14.2239 66.1022 14.7359 66.4702 15.1199C66.8542 15.5039 67.3182 15.6959 67.8622 15.6959ZM78.7432 8.61595C78.4712 8.61595 78.2312 8.52795 78.0232 8.35195C77.8312 8.17595 77.7352 7.97595 77.7352 7.75195C77.7352 7.30395 78.0392 7.07995 78.6472 7.07995C78.8712 7.07995 79.0952 7.15995 79.3192 7.31995C79.5432 7.46395 79.6552 7.64795 79.6552 7.87195C79.6552 8.06395 79.5512 8.23995 79.3432 8.39995C79.1352 8.54395 78.9352 8.61595 78.7432 8.61595ZM74.3032 17.1359C73.9512 17.1359 73.6632 17.0239 73.4392 16.7999C73.1992 16.5599 73.0792 16.1439 73.0792 15.5519C73.0792 15.2159 73.1592 14.8319 73.3192 14.3999C73.4632 13.9519 73.6472 13.5039 73.8712 13.0559C74.1112 12.6079 74.3432 12.2079 74.5672 11.8559C75.4632 10.3999 76.1992 9.66395 76.7752 9.64795C76.9192 9.64795 77.0952 9.71195 77.3032 9.83995C77.5112 9.95195 77.6152 10.0799 77.6152 10.2239C77.6152 10.2239 77.0072 11.0079 75.7912 12.5759C74.5912 14.1279 73.9912 15.2319 73.9912 15.8879C73.9912 16.3999 74.1912 16.6559 74.5912 16.6559C74.8472 16.6559 75.1752 16.5519 75.5752 16.3439C75.9912 16.1199 76.4232 15.8399 76.8712 15.5039C77.3192 15.1679 77.7432 14.8079 78.1432 14.4239C78.5592 14.0399 78.8952 13.6879 79.1512 13.3679C79.3112 13.1599 79.4472 13.0159 79.5592 12.9359C79.6872 12.8559 79.7672 12.8159 79.7992 12.8159C79.8632 12.8159 79.8952 12.8639 79.8952 12.9599C79.8952 13.0399 79.7992 13.1999 79.6072 13.4399C79.4312 13.6799 79.1832 13.9599 78.8632 14.2799C78.4792 14.6639 78.0552 15.0799 77.5912 15.5279C77.1272 15.9759 76.6232 16.3599 76.0792 16.6799C75.5352 16.9839 74.9432 17.1359 74.3032 17.1359ZM81.6133 16.9199C80.8613 16.9199 80.3013 16.6719 79.9333 16.1759C79.5813 15.6799 79.2933 14.9919 79.0693 14.1119C78.7813 14.3999 78.5813 14.5439 78.4693 14.5439C78.3893 14.5439 78.3493 14.4799 78.3493 14.3519C78.3493 14.2559 78.3893 14.1679 78.4693 14.0879C78.4693 14.0879 78.6693 13.8399 79.0693 13.3439C79.4853 12.8479 80.1813 12.1519 81.1573 11.2559L84.1813 8.42395C84.5973 8.02395 84.9253 7.71995 85.1653 7.51195C85.4213 7.30395 85.6053 7.19995 85.7173 7.19995C86.2293 7.19995 86.4853 7.39195 86.4853 7.77595C86.4853 7.96795 86.3813 8.19195 86.1733 8.44795C86.0133 8.63995 85.8933 8.79195 85.8133 8.90395C85.7493 8.99995 85.7093 9.05595 85.6933 9.07195C85.4053 9.56795 85.1413 10.4559 84.9013 11.7359C84.7253 12.6799 84.5733 13.4559 84.4453 14.0639C84.3173 14.6719 84.2133 15.1119 84.1333 15.3839C84.8053 15.3679 85.4693 15.1599 86.1253 14.7599C86.7813 14.3599 87.4853 13.7039 88.2373 12.7919C88.2693 12.7599 88.3173 12.7119 88.3813 12.6479C88.4453 12.5839 88.5093 12.5519 88.5733 12.5519C88.6693 12.5519 88.7173 12.5919 88.7173 12.6719C88.7173 12.7519 88.6933 12.8319 88.6453 12.9119C88.5973 12.9919 88.5493 13.0639 88.5013 13.1279C88.0053 13.7199 87.5413 14.2079 87.1093 14.5919C86.6773 14.9599 86.2213 15.2559 85.7413 15.4799C85.2613 15.6879 84.6933 15.8639 84.0373 16.0079L83.2693 16.5119C83.0613 16.6559 82.8133 16.7599 82.5253 16.8239C82.2373 16.8879 81.9333 16.9199 81.6133 16.9199ZM81.9013 15.6959C82.2693 15.6959 82.5733 15.6079 82.8133 15.4319C82.9893 15.3359 83.1573 15.0719 83.3173 14.6399C83.4933 14.1919 83.6613 13.6399 83.8213 12.9839C83.9493 12.4239 84.0453 11.8799 84.1093 11.3519C84.1893 10.8079 84.2613 10.2879 84.3253 9.79195L84.4213 8.97595C84.0533 9.24795 83.5893 9.63995 83.0293 10.1519C82.4693 10.6639 81.9173 11.1999 81.3733 11.7599C80.8293 12.3199 80.4773 12.7359 80.3173 13.0079C80.1573 13.2639 80.0693 13.4559 80.0533 13.5839C79.9893 14.2239 80.1413 14.7359 80.5093 15.1199C80.8933 15.5039 81.3573 15.6959 81.9013 15.6959ZM98.5481 18.4319C96.7721 18.4319 95.3961 17.9599 94.4201 17.0159C93.4601 16.0719 92.9801 14.8479 92.9801 13.3439C92.9801 11.9679 93.3161 10.6239 93.9881 9.31195C94.6761 7.99995 95.5401 6.79195 96.5801 5.68795C97.4281 4.79195 98.3961 4.01595 99.4841 3.35995C100.588 2.70395 101.74 2.19195 102.94 1.82395C104.156 1.45595 105.34 1.27195 106.492 1.27195C107.404 1.27195 108.228 1.39995 108.964 1.65595C109.7 1.89595 110.284 2.27995 110.716 2.80795C111.148 3.33595 111.364 4.02395 111.364 4.87195C111.364 5.62395 111.18 6.32795 110.812 6.98395C110.46 7.62395 109.98 8.18395 109.372 8.66395C108.78 9.14395 108.124 9.51995 107.404 9.79195C106.684 10.0639 105.956 10.1999 105.22 10.1999C104.26 10.1999 103.452 9.98395 102.796 9.55195C102.14 9.10395 101.812 8.54395 101.812 7.87195C101.812 7.00795 102.364 6.15995 103.468 5.32795C103.66 5.18395 103.812 5.11195 103.924 5.11195C104.004 5.11195 104.044 5.14395 104.044 5.20795C104.044 5.36795 103.916 5.49595 103.66 5.59195C102.764 6.31195 102.316 7.03995 102.316 7.77595C102.316 8.30395 102.556 8.75195 103.036 9.11995C103.516 9.47195 104.116 9.64795 104.836 9.64795C105.476 9.64795 106.116 9.51195 106.756 9.23995C107.412 8.96795 108.012 8.59995 108.556 8.13595C109.1 7.67195 109.532 7.15195 109.852 6.57595C110.188 5.98395 110.356 5.36795 110.356 4.72795C110.356 3.68795 110.004 2.92795 109.3 2.44795C108.596 1.96795 107.7 1.72795 106.612 1.72795C105.38 1.72795 104.156 1.95995 102.94 2.42395C101.74 2.88795 100.612 3.52795 99.5561 4.34395C98.5001 5.15995 97.5561 6.09595 96.7241 7.15195C95.0601 9.24795 94.2281 11.2159 94.2281 13.0559C94.2281 14.0319 94.4521 14.8639 94.9001 15.5519C95.3481 16.2239 95.9641 16.7359 96.7481 17.0879C97.5481 17.4399 98.4601 17.6159 99.4841 17.6159C101.004 17.6159 102.476 17.2879 103.9 16.6319C105.324 15.9599 106.54 15.0639 107.548 13.9439C107.82 13.6559 108.02 13.5119 108.148 13.5119C108.244 13.5119 108.292 13.5839 108.292 13.7279C108.292 13.9199 108.204 14.1039 108.028 14.2799C107.484 14.8559 106.836 15.3919 106.084 15.8879C105.332 16.3839 104.524 16.8239 103.66 17.2079C102.812 17.5919 101.948 17.8879 101.068 18.0959C100.188 18.3199 99.3481 18.4319 98.5481 18.4319ZM111.258 16.9919C110.874 16.9919 110.49 16.8559 110.106 16.5839C109.722 16.3119 109.506 15.9919 109.458 15.6239C109.298 14.3919 110.074 12.9279 111.786 11.2319C113.482 9.53595 115.01 8.68795 116.37 8.68795C116.738 8.68795 117.026 8.77595 117.234 8.95195C117.346 9.06395 117.426 9.21595 117.474 9.40795C117.538 9.59995 117.586 9.69595 117.618 9.69595C117.682 9.69595 117.738 9.68795 117.786 9.67195C117.834 9.63995 117.89 9.62395 117.954 9.62395C118.146 9.62395 118.314 9.69595 118.458 9.83995C118.602 9.98395 118.682 10.1119 118.698 10.2239C118.714 10.2559 118.202 11.0479 117.162 12.5999C116.122 14.1199 115.65 15.1519 115.746 15.6959C115.826 16.0639 116.002 16.2479 116.274 16.2479C117.106 16.2479 118.626 14.8719 120.834 12.1199C120.882 12.0559 120.93 12.0239 120.978 12.0239C121.058 12.0239 121.098 12.0799 121.098 12.1919C121.098 12.3199 121.026 12.4799 120.882 12.6719C118.85 15.4079 117.29 16.7759 116.202 16.7759C116.058 16.7759 115.922 16.7519 115.794 16.7039C115.09 16.4319 114.738 15.9039 114.738 15.1199C114.738 14.8479 114.77 14.5759 114.834 14.3039L113.346 15.7439C112.898 16.1919 112.49 16.5119 112.122 16.7039C111.77 16.8959 111.482 16.9919 111.258 16.9919ZM111.042 16.4639C111.97 16.4639 113.234 15.4479 114.834 13.4159L117.378 9.91195C117.25 9.68795 117.042 9.57595 116.754 9.57595C115.778 9.57595 114.458 10.3599 112.794 11.9279C111.066 13.5279 110.29 14.8479 110.466 15.8879C110.546 16.2719 110.738 16.4639 111.042 16.4639ZM125.205 16.9199C124.821 16.9199 124.629 16.7039 124.629 16.2719C124.805 15.3759 125.165 14.3679 125.709 13.2479C125.965 12.7039 126.221 12.1679 126.477 11.6399C126.749 11.1119 127.013 10.5759 127.269 10.0319C126.677 10.4319 126.085 10.8799 125.493 11.3759C124.901 11.8559 124.325 12.3999 123.765 13.0079C123.109 13.7119 122.349 14.6159 121.485 15.7199C120.861 16.5039 120.501 16.8959 120.405 16.8959C120.181 16.8959 119.997 16.7919 119.853 16.5839C119.709 16.3759 119.637 16.1999 119.637 16.0559C119.637 15.8479 119.821 15.3119 120.189 14.4479C120.301 14.1759 120.413 13.9119 120.525 13.6559C120.653 13.3839 120.773 13.1199 120.885 12.8639L119.445 14.3759C119.413 14.4079 119.317 14.5039 119.157 14.6639C118.997 14.8239 118.869 14.9039 118.773 14.9039C118.693 14.9039 118.653 14.8479 118.653 14.7359C118.653 14.7039 118.669 14.6639 118.701 14.6159C118.717 14.5519 118.765 14.4799 118.845 14.3999C119.085 14.1599 119.333 13.9039 119.589 13.6319C119.845 13.3599 120.109 13.0479 120.381 12.6959C120.589 12.4239 120.885 12.0239 121.269 11.4959C121.669 10.9519 122.157 10.2719 122.733 9.45595C122.909 9.21595 123.157 9.09595 123.477 9.09595C123.797 9.09595 123.957 9.24795 123.957 9.55195C123.957 9.66395 123.549 10.4079 122.733 11.7839C122.317 12.5199 121.981 13.1199 121.725 13.5839C121.485 14.0479 121.333 14.3919 121.269 14.6159C121.621 14.2319 122.037 13.7999 122.517 13.3199C123.013 12.8399 123.581 12.3039 124.221 11.7119C126.189 9.88795 127.485 8.97595 128.109 8.97595C128.285 8.97595 128.453 9.03195 128.613 9.14395C128.789 9.25595 128.877 9.39995 128.877 9.57595C128.877 9.65595 128.565 10.2399 127.941 11.3279C127.333 12.4319 126.997 13.0879 126.933 13.2959C128.709 11.8079 129.597 11.0559 129.597 11.0399C131.101 9.87195 132.181 9.28795 132.837 9.28795C133.029 9.28795 133.205 9.35195 133.365 9.47995C133.541 9.59195 133.629 9.72795 133.629 9.88795C133.629 9.91995 133.117 10.5919 132.093 11.9039C131.037 13.2319 130.445 14.3199 130.317 15.1679C130.253 15.7439 130.549 16.0319 131.205 16.0319C131.605 16.0319 132.165 15.7759 132.885 15.2639C133.605 14.7519 134.357 14.0479 135.141 13.1519C135.237 13.0399 135.341 12.9359 135.453 12.8399C135.565 12.7279 135.661 12.6719 135.741 12.6719C135.837 12.6719 135.885 12.7119 135.885 12.7919C135.885 12.9039 135.813 13.0319 135.669 13.1759C135.253 13.6719 134.757 14.1839 134.181 14.7119C133.621 15.2399 133.061 15.6879 132.501 16.0559C131.941 16.4079 131.445 16.5839 131.013 16.5839C129.925 16.5839 129.381 16.0799 129.381 15.0719C129.381 14.7199 129.477 14.3119 129.669 13.8479C129.861 13.3679 130.053 12.9359 130.245 12.5519C130.709 11.6559 131.213 10.8639 131.757 10.1759C131.245 10.4319 130.709 10.7679 130.149 11.1839C129.605 11.5999 129.037 12.0879 128.445 12.6479C127.069 13.9919 126.125 15.3519 125.613 16.7279C125.533 16.8559 125.397 16.9199 125.205 16.9199ZM136.289 16.9919C135.905 16.9919 135.521 16.8559 135.137 16.5839C134.753 16.3119 134.537 15.9919 134.489 15.6239C134.329 14.3919 135.105 12.9279 136.817 11.2319C138.513 9.53595 140.041 8.68795 141.401 8.68795C141.769 8.68795 142.057 8.77595 142.265 8.95195C142.377 9.06395 142.457 9.21595 142.505 9.40795C142.569 9.59995 142.617 9.69595 142.649 9.69595C142.713 9.69595 142.769 9.68795 142.817 9.67195C142.865 9.63995 142.921 9.62395 142.985 9.62395C143.177 9.62395 143.345 9.69595 143.489 9.83995C143.633 9.98395 143.713 10.1119 143.729 10.2239C143.745 10.2559 143.233 11.0479 142.193 12.5999C141.153 14.1199 140.681 15.1519 140.777 15.6959C140.857 16.0639 141.033 16.2479 141.305 16.2479C142.137 16.2479 143.657 14.8719 145.865 12.1199C145.913 12.0559 145.961 12.0239 146.009 12.0239C146.089 12.0239 146.129 12.0799 146.129 12.1919C146.129 12.3199 146.057 12.4799 145.913 12.6719C143.881 15.4079 142.321 16.7759 141.233 16.7759C141.089 16.7759 140.953 16.7519 140.825 16.7039C140.121 16.4319 139.769 15.9039 139.769 15.1199C139.769 14.8479 139.801 14.5759 139.865 14.3039L138.377 15.7439C137.929 16.1919 137.521 16.5119 137.153 16.7039C136.801 16.8959 136.513 16.9919 136.289 16.9919ZM136.073 16.4639C137.001 16.4639 138.265 15.4479 139.865 13.4159L142.409 9.91195C142.281 9.68795 142.073 9.57595 141.785 9.57595C140.809 9.57595 139.489 10.3599 137.825 11.9279C136.097 13.5279 135.321 14.8479 135.497 15.8879C135.577 16.2719 135.769 16.4639 136.073 16.4639ZM149.468 16.9919C148.78 16.9919 148.308 16.8159 148.052 16.4639C147.796 16.0959 147.668 15.6079 147.668 14.9999C147.668 14.3279 147.876 13.5279 148.292 12.5999C148.452 12.2319 148.62 11.9039 148.796 11.6159C148.972 11.3119 149.156 11.0319 149.348 10.7759C149.284 10.7919 149.228 10.7999 149.18 10.7999C149.132 10.7999 149.084 10.7999 149.036 10.7999C148.652 10.7999 148.332 10.5279 148.076 9.98395L146.3 12.2879C145.356 13.5199 144.78 14.1359 144.572 14.1359C144.492 14.1359 144.452 14.1039 144.452 14.0399C144.452 13.9599 144.492 13.8559 144.572 13.7279C144.62 13.6319 144.716 13.5039 144.86 13.3439C145.468 12.6399 146.028 11.9439 146.54 11.2559C147.052 10.5679 147.476 9.89595 147.812 9.23995C148.18 7.84795 148.644 7.15195 149.204 7.15195C149.572 7.15195 149.756 7.31995 149.756 7.65595C149.756 7.95995 149.556 8.35995 149.156 8.85595C148.772 9.35195 148.58 9.60795 148.58 9.62395C148.58 9.95995 148.828 10.1279 149.324 10.1279C149.612 10.1279 149.932 10.0239 150.284 9.81595L150.908 9.43195C150.94 9.41595 150.988 9.40795 151.052 9.40795C151.244 9.40795 151.412 9.48795 151.556 9.64795C151.7 9.80795 151.748 9.95195 151.7 10.0799L150.044 12.1679C149.02 13.4799 148.508 14.5359 148.508 15.3359C148.508 16.0559 148.86 16.4159 149.564 16.4159C150.044 16.4159 150.556 16.2719 151.1 15.9839C151.66 15.6959 152.196 15.3439 152.708 14.9279C153.236 14.4959 153.676 14.0799 154.028 13.6799L154.604 13.0079C154.636 12.9759 154.676 12.9359 154.724 12.8879C154.772 12.8399 154.812 12.8159 154.844 12.8159C154.956 12.8159 155.012 12.8719 155.012 12.9839C155.012 13.0159 154.996 13.0719 154.964 13.1519C154.932 13.2319 154.876 13.3199 154.796 13.4159L154.028 14.2799C153.66 14.6959 153.204 15.1199 152.66 15.5519C152.132 15.9679 151.58 16.3119 151.004 16.5839C150.444 16.8559 149.932 16.9919 149.468 16.9919ZM153.753 21.7919C153.273 21.7919 152.865 21.5919 152.529 21.1919C152.193 20.7919 152.017 20.3599 152.001 19.8959C152.049 19.7039 152.121 19.6079 152.217 19.6079C152.313 19.6079 152.369 19.7279 152.385 19.9679C152.401 20.2239 152.529 20.4719 152.769 20.7119C153.009 20.9519 153.241 21.0719 153.465 21.0719C154.393 21.0719 155.369 20.4719 156.393 19.2719C156.761 18.8399 157.137 18.3279 157.521 17.7359C157.921 17.1599 158.305 16.5039 158.673 15.7679L159.873 13.3919L158.073 15.2159C157.513 15.7759 157.025 16.1919 156.609 16.4639C156.209 16.7359 155.897 16.8719 155.673 16.8719C155.289 16.8719 154.905 16.7359 154.521 16.4639C154.137 16.1759 153.921 15.8479 153.873 15.4799C153.713 14.2479 154.489 12.7839 156.201 11.0879C157.913 9.40795 159.441 8.56795 160.785 8.56795C161.153 8.56795 161.441 8.65595 161.649 8.83195C161.761 8.92795 161.841 9.07195 161.889 9.26395C161.953 9.45595 162.001 9.55195 162.033 9.55195C162.097 9.55195 162.153 9.54395 162.201 9.52795C162.249 9.49595 162.305 9.47995 162.369 9.47995C162.577 9.47995 162.745 9.55195 162.873 9.69595C163.017 9.83995 163.065 9.98395 163.017 10.1279C163.001 10.2719 162.769 10.7039 162.321 11.4239C162.033 11.9039 161.705 12.4879 161.337 13.1759C160.969 13.8479 160.577 14.5519 160.161 15.2879C159.761 16.0079 159.369 16.6799 158.985 17.3039C158.601 17.9439 158.257 18.4639 157.953 18.8639C156.481 20.8159 155.081 21.7919 153.753 21.7919ZM155.457 16.3199C156.385 16.3199 157.649 15.3039 159.249 13.2719L161.793 9.76795C161.697 9.54395 161.497 9.43195 161.193 9.43195C160.201 9.43195 158.873 10.2159 157.209 11.7839C155.481 13.4159 154.705 14.7359 154.881 15.7439C154.961 16.1279 155.153 16.3199 155.457 16.3199ZM163.932 16.9199C163.532 16.9199 163.22 16.7359 162.996 16.3679C162.772 15.9839 162.66 15.6159 162.66 15.2639C162.66 14.3039 163.356 12.9599 164.748 11.2319C166.156 9.48795 167.292 8.61595 168.156 8.61595C168.972 8.61595 169.38 9.04795 169.38 9.91195C169.38 10.0399 169.364 10.1759 169.332 10.3199C169.316 10.4639 169.292 10.6159 169.26 10.7759C169.292 10.8239 169.372 10.8479 169.5 10.8479C169.932 10.8479 170.444 10.6959 171.036 10.3919C171.02 10.6639 170.388 11.0559 169.14 11.5679C169.316 12.0959 168.788 13.1039 167.556 14.5919C166.292 16.1439 165.212 16.9199 164.316 16.9199H163.932ZM164.364 16.1999C165.052 16.1999 165.932 15.5679 167.004 14.3039C168.044 13.0719 168.564 12.1839 168.564 11.6399C168.308 11.4959 167.988 11.1279 167.604 10.5359C167.06 10.5359 166.276 11.1919 165.252 12.5039C164.244 13.7839 163.756 14.7679 163.788 15.4559C163.804 15.9519 163.996 16.1999 164.364 16.1999Z" fill="black"/>
</svg>
